<svg width="59" height="59" viewBox="0 0 59 59" fill="none" xmlns="http://www.w3.org/2000/svg">
<g clip-path="url(#clip0_657_34219)">
<path d="M29.5 59C13.23 59 0 45.77 0 29.5C0 13.23 13.23 0 29.5 0C45.77 0 59 13.23 59 29.5C59 45.77 45.77 59 29.5 59ZM29.5 2C14.34 2 2 14.34 2 29.5C2 44.66 14.34 57 29.5 57C44.66 57 57 44.66 57 29.5C57 14.34 44.66 2 29.5 2Z" fill="white"/>
<path d="M25.8497 38.8796L24.4397 37.4596L32.4497 29.4896L24.4297 21.1896L25.8697 19.8096L35.2597 29.5096L25.8497 38.8796Z" fill="white"/>
</g>
<defs>
<clipPath id="clip0_657_34219">
<rect width="59" height="59" fill="white"/>
</clipPath>
</defs>
</svg>
