<svg width="561" height="627" viewBox="0 0 561 627" fill="none" xmlns="http://www.w3.org/2000/svg">
<path d="M413.813 283.483L561 258.076L433.137 236.004L546.597 173.108L399.243 197.527L485.336 75.5887L379.3 150.304L415.01 25.6809L328.1 147.04L302.666 0L280.573 127.735L217.613 14.3885L242.058 161.595L119.996 75.5887L194.787 181.518L70.0386 145.846L191.519 232.669L44.332 258.076L172.197 280.148L58.7349 343.044L206.09 318.624L119.996 440.563L226.032 365.848L190.323 490.471L277.233 369.112L302.666 516.152L324.76 388.416L387.721 501.763L363.275 354.555L485.336 440.563L410.545 334.633L535.293 370.306L413.813 283.483Z" fill="white"/>
<path d="M300.147 143.763C298.046 140.642 294.328 140.328 290.901 140.738C285.747 141.355 279.147 141.743 274.282 143.723C271.448 144.875 270.538 146.496 270.025 148.713C269.787 150.775 269.552 152.838 269.513 154.919C269.433 159.193 269.507 163.515 269.565 167.792C269.64 173.286 273.248 175.723 277.775 178.153C280.535 179.634 283.9 181.85 287.053 183.065C288.178 183.275 289.292 183.389 290.346 183.344C292.612 183.247 294.516 181.901 296.259 180.289C301.901 172.883 303.882 156.004 302.608 150.83C302.054 148.581 301.45 145.702 300.145 143.762L300.147 143.763Z" fill="#FFDBCE"/>
<path d="M213.645 626C215.869 620.669 219.168 611.881 222.159 600.428C225.846 586.306 224.129 566.597 222.469 547.54C221.827 540.164 221.161 532.537 220.802 525.233C219.754 503.95 223.779 475.434 225.388 465.123C222.096 468.377 218.325 471.178 214.462 472.795C214.161 472.921 213.853 473.031 213.548 473.147C211.932 475.129 210.251 477.032 208.263 478.692C205.342 481.132 203.342 481.369 199.882 482.55C192.854 484.946 185.796 486.872 178.592 488.713C177.822 488.91 177.383 487.802 178.162 487.531C184.282 485.399 191.15 483.893 196.993 481.112C199.862 479.746 202.337 477.377 205.047 475.571C203.383 475.951 201.724 476.313 200.114 476.705C195.681 477.785 191.164 478.327 186.613 478.563C185.872 478.602 185.785 477.506 186.52 477.416C195.994 476.265 204.362 474.045 212.728 469.502C223.798 463.489 234.021 452.837 239.623 441.646C243.254 434.392 246.293 416.478 247.7 407.084C247.009 407.99 246.288 408.861 245.537 409.679C242 413.527 237.817 415.9 233.228 418.316C228.131 420.999 223.655 423.94 217.968 424.658C204.629 426.345 191.171 429.832 178.018 432.684C177.543 432.787 177.063 432.899 176.584 433.01C174.149 439.302 169.203 443.222 163.485 446.496C159.664 448.682 155.761 450.619 152.124 453.12C148.176 455.835 144.71 457.281 140.171 458.756C138.822 459.194 137.92 457.435 139.028 456.581C142.196 454.136 144.997 451.999 148.725 450.506C152.656 448.93 156.411 447.353 160.152 445.319C164.82 442.779 169.624 439.861 172.705 435.528C166.552 439.669 158.321 441.827 151.445 442.839C146.258 443.603 140.782 443.707 135.559 443.067C132.254 442.663 128.617 440.034 126.363 437.633C125.834 437.07 126.151 436.02 127.04 436.184C135.473 437.742 143.221 441.22 152.014 440.33C158.034 439.72 162.966 437.315 167.98 434.81C165.679 435.148 163.364 435.299 161.042 435.063C156.269 434.576 150.874 432.076 147.239 428.991C146.212 428.119 147.289 426.328 148.518 426.974C157.266 431.573 169.566 430.152 179.091 428.51C190.393 426.563 201.904 424.545 213.048 421.836C215.692 421.193 218.122 419.91 220.773 419.349C224.32 418.599 227.4 418.806 230.784 417.121C235.247 414.897 238.723 411.323 242.016 407.623C252.288 396.084 257.234 382.171 248.419 367.87C245.795 363.613 242.411 359.877 238.189 357.359C236.34 357.056 234.542 356.597 232.919 355.961C229.356 354.565 226.886 353.105 222.886 353.311C221.72 353.372 220.558 353.546 219.4 353.754C218.499 353.967 217.578 354.144 216.645 354.28C216.288 354.349 215.931 354.42 215.576 354.484C215.447 354.507 215.331 354.496 215.223 354.467C211.312 354.901 207.336 354.816 204.178 354.762C193.357 354.581 182.849 356.196 172.147 357.548C161.51 358.892 150.729 359.418 140.015 358.885C128.94 358.333 118.024 355.661 107.271 353.136C106.195 352.884 106.484 351.216 107.579 351.439C118.366 353.638 129.297 353.971 140.24 354.403C150.486 354.807 160.718 354.496 170.907 353.298C181.391 352.066 191.716 350.196 202.313 350.296C206.58 350.337 210.867 350.476 215.133 350.37C219.634 350.258 223.331 348.644 227.624 347.788C228.227 347.668 228.544 348.49 228.205 348.904C227.789 349.413 227.316 349.863 226.822 350.287C227.57 350.337 228.324 350.403 229.086 350.481C232.03 350.784 234.592 350.8 237.359 351.956C240.667 353.337 243.399 354.575 247.042 354.879C248.665 355.014 248.397 357.46 246.904 357.621C246.423 357.673 245.929 357.708 245.43 357.736C246.05 358.169 246.643 358.64 247.213 359.143C252.056 355.939 258.128 354.975 263.08 351.646C268.722 347.853 275.68 341.935 278.028 335.308C281.631 325.141 282.369 309.539 274.958 300.521C274.455 300.417 274.042 299.976 274.007 299.451C272.624 298.005 270.997 296.764 269.099 295.792C257.138 289.904 245.627 283.592 232.739 279.629C219.442 275.543 204.236 278.503 190.635 279.462C183.138 279.99 175.639 280.53 168.149 281.162C160.903 281.771 153.848 283.193 146.657 283.928C132.299 285.393 117.828 285.137 103.454 286.536C102.826 286.596 102.764 285.659 103.376 285.568C108.016 284.875 112.649 283.983 117.286 283.06C113.511 282.3 109.819 280.965 106.173 279.812C101.975 278.483 98.0993 276.809 94.3681 274.464C93.3026 273.795 93.9854 272.222 95.2045 272.673C99.5024 274.263 103.821 275.94 108.256 277.11C112.106 278.125 116.03 278.207 119.978 278.572C127.012 279.224 133.782 279.172 140.728 278.937C143.45 278.613 146.177 278.37 148.914 278.248C163.923 277.579 178.87 275.989 193.876 274.77C207.106 273.695 221.56 270.683 234.208 275.84C240.567 278.432 245.962 282.605 252.107 285.607C259.494 289.217 267.374 291.584 274.604 295.262C275.98 295.961 280.939 287.559 281.41 286.593C283.309 282.697 285.202 278.855 286.667 274.765C288.301 270.21 289.864 265.419 290.841 260.674C291.364 258.137 291.626 255.569 291.941 253.007C291.789 249.002 291.243 245.062 290.074 241.382C287.37 232.876 280.207 228.213 272.615 224.346C257.525 216.66 242.315 208.362 226.476 202.313C218.722 199.352 210.843 196.573 202.472 196.27C194.182 195.97 185.789 197.127 177.654 198.631C161.052 201.699 144.532 205.144 127.863 207.855C119.621 209.195 111.437 210.092 103.126 210.844C94.8305 211.594 86.6448 212.964 78.3156 213.375C77.5039 213.416 77.472 212.32 78.217 212.157C84.9662 210.691 91.7676 209.594 98.5457 208.35C97.0918 207.791 95.6582 207.067 93.8303 206.468C86.5042 204.067 79.6231 200.322 72.7261 196.928C71.8114 196.477 72.4652 195.073 73.3943 195.495C80.3015 198.636 87.6769 202.024 95.2798 202.991C97.2368 203.24 99.1226 202.565 101.045 202.713C102.69 202.839 104.141 203.391 105.762 203.67C109.758 204.359 113.885 203.767 117.854 203.202C125.7 202.084 133.498 200.594 141.277 199.085C147.526 197.875 154.126 195.911 160.586 195.506C173.665 192.496 186.742 189.298 199.973 187.177C208.684 185.783 216.178 188.647 224.659 190.246C232.875 191.795 241.163 192.585 249.489 193.274C265.86 194.629 284.535 196.377 298.98 186.836C309.002 180.215 313.997 168.978 313.112 157.183C311.45 135.034 286.382 128.601 268.384 125.294L268.081 125.239C263.78 124.067 218.338 122.243 204.935 122.706C198.028 122.939 185.47 121.769 174.391 120.732C165.152 119.868 156.422 119.047 152.978 119.242C145.733 119.643 127.92 130.885 120.312 135.684L120.063 135.842C114.482 139.364 96.1786 149.838 82.8136 157.484C76.392 161.159 70.846 164.332 68.4528 165.738C61.3543 169.91 55.224 173.512 52.3757 182.458C51.0131 186.736 51.4552 193.097 51.9248 199.833C52.4394 207.225 52.9714 214.87 51.0681 220.572C48.6575 227.799 42.4954 233.303 37.5452 237.725C35.036 239.967 32.8689 241.902 31.7889 243.521C31.357 244.169 30.9641 244.731 30.6047 245.244C28.2607 248.599 27.5519 249.612 26.4575 261.285C25.5906 270.515 33.2313 282.449 38.8092 291.162C41.1444 294.81 43.1622 297.961 44.1015 300.233C45.7555 304.232 45.0829 309.998 44.3045 316.677C43.5507 323.147 42.6955 330.48 44.1856 336.414C46.0411 343.806 50.7681 350.982 56.2822 356.188C59.2596 359.001 62.6168 361.228 65.7972 363.779C68.9688 366.325 70.3155 368.332 70.7358 372.389C71.162 376.501 70.2488 380.11 69.8458 384.15C69.8357 384.253 69.6632 384.272 69.6385 384.167C68.6615 380.006 67.5772 375.053 65.6653 371.3C63.6591 367.361 60.9368 365.314 57.6985 362.478C57.2853 362.116 56.8635 361.738 56.4359 361.352C56.6519 361.7 56.8679 362.048 57.0751 362.379C58.4856 364.64 59.7032 366.592 60.4744 368.024C63.2227 373.123 65.816 381.545 68.8833 395.334C70.3097 401.745 74.6076 408.804 78.0112 413.657C86.2288 425.374 93.594 437.707 102.806 448.719C107.697 454.563 112.95 460.363 118.122 465.957C123.501 471.776 130.643 475.961 137.64 479.587C137.974 479.76 137.742 480.231 137.397 480.108C129.942 477.448 123.694 473.442 117.035 469.272C113.976 467.356 110.819 465.282 108.262 462.736C105.391 459.878 103.322 456.408 100.914 453.177C95.7408 446.234 89.8672 439.895 84.8923 432.788C83.6471 431.008 82.3497 429.171 81.1147 427.275C79.6825 431.029 77.2081 436.417 72.9841 443.232C70.6706 446.966 66.1103 452.401 60.3381 459.283C44.2929 478.409 20.0446 507.312 10.131 538.909C-0.466748 572.689 9.79906 611.42 14.5058 626.013H213.641L213.645 626ZM207.528 464.828C211.81 460.375 215.147 455.445 218.355 450.194C219.726 447.95 221.203 445.838 222.685 443.671C224.413 441.142 225.464 438.324 227.135 435.786C227.44 435.324 228.186 435.726 228.082 436.226C225.58 448.229 216.901 457.519 208.208 465.559C207.786 465.948 207.14 465.232 207.528 464.828ZM168.931 448.145C170.266 447.667 171.589 447.171 172.897 446.62C174.719 445.854 175.554 444.733 177.021 443.494C178.889 441.917 181.468 441.677 183.837 441.485C185.101 441.384 185.805 442.873 185.059 443.837C183.496 445.857 181.414 448.118 178.694 448.089C176.813 448.069 176.738 447.803 175.191 448.264C174.51 448.467 173.826 448.659 173.139 448.84C171.86 449.178 170.572 449.469 169.28 449.747C168.347 449.947 168.083 448.449 168.931 448.147V448.145ZM131.233 421.277C134.021 421.874 137.172 424.931 138.875 427.121C139.539 427.976 139.445 428.386 139.893 429.288C140.342 430.193 141.144 430.787 141.863 431.46C143.102 432.621 144.217 433.771 145.312 435.066C145.787 435.628 145.038 436.433 144.422 436.133C142.717 435.305 141.298 434.377 139.824 433.169C139.051 432.536 138.375 432.006 137.485 431.601C136.835 431.304 136.245 431.199 135.627 430.765C133.263 429.103 130.174 425.304 130.113 422.289C130.101 421.697 130.6 421.141 131.233 421.275V421.277ZM214.508 303.636C215.182 300.141 215.488 296.607 215.85 293.061C215.934 292.232 217.336 292.303 217.311 293.133C217.197 296.926 217.294 300.501 217.785 304.26C218.133 306.918 218.184 309.815 217.006 312.26C216.562 313.178 215.385 312.994 214.98 312.172C213.67 309.508 213.961 306.469 214.508 303.635V303.636ZM213.932 239.366C214.104 238.344 215.572 238.654 215.489 239.648C215.328 241.611 215.256 243.577 215.275 245.547C215.289 247.022 215.472 248.365 214.985 249.777C214.759 250.434 213.857 250.236 213.624 249.717C212.352 246.889 213.441 242.297 213.932 239.366ZM199.086 225.761C200.269 220.458 202.939 215.442 205.409 210.643C205.669 210.137 206.366 210.491 206.192 211.008C204.37 216.39 203.99 221.802 203.049 227.339C202.207 232.295 200.94 237.158 200.447 242.164C200.407 242.579 199.834 242.48 199.77 242.131C198.798 236.774 197.88 231.17 199.087 225.762L199.086 225.761ZM266.834 161.042C266.997 154.236 266.647 144.678 272.041 139.839C272.456 139.466 273.002 140.127 272.682 140.528C272.105 141.249 271.618 142.04 271.195 142.878C271.398 142.722 271.603 142.568 271.841 142.428C274.775 140.696 278.742 140.021 282.005 139.259C285.489 138.447 289.261 137.549 292.838 137.358C297.81 137.093 301.216 140.038 303.249 144.575C307.854 154.856 305.407 173.305 298.135 181.117C296.314 183.674 294.13 186.018 291.028 186.116C287.433 186.23 284.186 184.739 281.365 182.703C280.265 182.257 279.19 181.772 278.157 181.276C275.255 179.883 271.108 178.195 269.003 175.429C269.138 177.02 269.468 178.535 270.202 179.808C270.325 180.021 270.031 180.241 269.886 180.032C266.231 174.793 266.225 167.631 266.836 161.042H266.834ZM146.104 127.653C146.233 126.882 147.5 126.918 147.495 127.722C147.471 130.527 147.276 133.218 146.754 135.976C146.142 139.21 146.071 142.412 145.552 145.64C145.033 148.859 144.034 151.977 143.592 155.206C143.082 158.928 143.737 162.244 144.485 165.87C144.619 166.516 143.61 166.843 143.279 166.309C135.508 153.713 143.994 140.302 146.104 127.654V127.653ZM52.8033 295.902C51.3233 293.933 50.2318 291.772 48.614 289.889C47.0384 288.056 45.1539 286.625 43.5246 284.863C39.8094 280.843 37.3596 276.19 33.0515 272.692C32.2731 272.059 33.224 271.025 34.0169 271.53C39.0788 274.758 45.5598 276.113 49.2547 281.172C51.9335 284.838 54.334 290.747 54.4674 295.297C54.4935 296.196 53.3614 296.64 52.8047 295.901L52.8033 295.902ZM59.8699 198.809C59.5046 201.136 58.7132 203.372 58.545 205.836C58.4348 207.444 58.3073 209.04 58.1333 210.641C58.0406 211.494 56.6562 211.413 56.6374 210.566C56.591 208.559 56.6142 206.472 56.3069 204.484C55.7676 201.001 55.1298 201.611 54.3166 199.278C53.2526 196.228 55.2835 192.449 54.9979 189.296C54.9515 188.783 55.6923 188.637 55.8691 189.106C56.9316 191.932 60.383 195.553 59.8713 198.807L59.8699 198.809ZM20.0692 534.824C21.7275 530.718 22.5103 526.346 24.9398 522.599C30.4945 514.035 35.9999 505.334 41.7301 496.877C42.1055 496.323 42.9651 496.916 42.694 497.487C38.483 506.362 33.4255 514.803 29.661 523.89C27.9012 528.141 24.8006 531.119 22.9176 535.246C20.8273 539.828 18.6805 544.604 17.5542 549.51C17.3788 550.274 16.2148 550.071 16.3511 549.292C17.2237 544.291 18.1645 539.54 20.0692 534.822V534.824Z" fill="#FFDBCE"/>
<path d="M282.13 197.057C268.191 199.067 252.947 197.901 239.122 195.531C235.701 194.944 232.287 194.306 228.877 193.645C228.969 195.038 229.133 196.423 229.338 197.804C229.438 198.475 229.594 199.083 229.654 199.672C233.494 201.407 237.336 203.252 241.248 205.085C249.806 209.095 258.424 212.956 267.089 216.728C273.743 219.624 282.084 222.002 287.117 227.541C291.516 232.382 293.992 239.917 294.853 246.281C295.347 249.931 295.233 253.476 294.814 256.984C294.601 263.249 293.109 269.693 291.239 275.212C289.603 280.046 287.52 284.972 284.706 289.248C282.948 291.922 281.07 294.953 278.834 297.477C285.955 305.139 285.668 322.929 283.127 330.724C281.797 334.806 279.205 339.363 276.935 343C274.978 346.135 272.593 349.182 269.771 351.58C266.681 354.205 263.164 356.338 259.456 357.975C256.231 359.398 252.497 359.935 249.131 361.092C250.112 362.252 250.982 363.544 251.701 364.986C253.084 367.761 253.568 370.679 254.01 373.639C254.351 372.269 254.877 370.802 255.683 369.306C256.693 367.431 259.723 363.996 264.308 358.796C274.036 347.764 290.32 329.297 298.09 312.278C308.925 288.546 305.891 250.613 302.415 242.8L302.282 242.5L302.26 242.175C301.895 236.699 301.216 220.033 301.015 215.009C300.748 215.489 300.473 215.964 300.177 216.43C296.618 222.037 292.451 222.26 286.337 223.077C285.987 223.123 285.958 222.602 286.293 222.54C297.664 220.43 302.854 209.234 306.336 199.034C306.886 197.425 307.392 195.841 307.873 194.322C309.38 189.564 309.847 182.821 312.22 178.534C311.711 179.454 311.149 180.366 310.514 181.27C304.024 190.507 293.039 195.484 282.127 197.058L282.13 197.057Z" fill="#FFDBCE"/>
<path d="M309.97 176.844C309.462 177.855 308.937 178.861 308.408 179.865C308.024 179.884 307.641 180.04 307.337 180.407C306.951 180.869 306.604 181.357 306.288 181.861C306.231 181.876 306.171 181.889 306.115 181.921C294.005 188.644 279.212 191.26 265.408 190.326C249.584 189.256 234.413 184.264 218.735 182.257C202.149 180.134 186.221 183.471 169.966 186.454C153.029 189.563 136.1 192.688 119.119 195.552C109.826 197.119 100.572 198.843 91.3211 200.641C90.0455 200.889 87.5841 201.325 85.0822 202.073C84.7343 201.997 84.3893 201.918 84.0486 201.833C81.0089 201.074 78.1532 200.311 75.4817 198.591C74.0901 197.696 72.6608 195.716 70.9214 195.59C70.1966 195.538 69.5515 195.893 69.3921 196.647C69.3631 196.783 69.3355 196.918 69.3066 197.054C69.2094 197.518 69.4863 198.024 69.9096 198.22C70.0125 198.268 70.1154 198.315 70.2183 198.363C70.3459 198.423 70.4793 198.44 70.6112 198.434C70.4459 198.817 70.4995 199.202 70.788 199.588C71.1852 200.324 71.6317 201.028 72.1274 201.7C72.9638 202.803 73.9655 203.852 75.0004 204.776C72.7609 205.194 71.0881 207.834 72.0419 210.019C72.8015 211.761 73.0856 213.263 74.6641 214.489C75.228 214.927 76.0586 215.001 76.6501 214.563C77.4212 213.994 77.8894 213.386 78.2605 212.714C82.3613 212.911 87.6363 213.034 91.0268 210.96C94.9972 211.182 99.0516 210.707 102.312 209.352C103.339 208.924 103.792 207.724 103.477 206.768C111.571 205.295 119.631 203.639 127.696 202.021C144.063 198.737 160.506 195.81 176.919 192.762C193.151 189.747 208.553 187.753 225.032 190.119C226.916 190.39 228.796 190.693 230.673 191.013C230.442 191.506 230.488 192.118 231.008 192.497C231.182 192.624 231.348 192.746 231.517 192.869C230.149 192.816 228.783 192.821 227.425 192.92C226.971 192.953 226.591 193.112 226.28 193.346C225.89 193.291 225.503 193.228 225.109 193.196C225.111 193.096 225.111 192.995 225.127 192.904C222.491 192.38 219.854 191.85 217.22 191.317C211.645 190.189 206.171 190.257 200.672 190.916C208.817 191.7 216.339 194.081 223.736 197.118C229.001 204.635 240.354 208.011 248.463 211.107C253.216 212.921 258.008 214.649 262.725 216.557C267.356 218.433 272.289 220.996 277.352 221.125C277.899 221.139 278.366 220.984 278.751 220.725C281.527 223.798 284.29 227.045 287.379 229.714C287.522 229.965 287.679 230.209 287.866 230.438C288.144 230.778 288.604 231.034 289.068 231.076C289.174 231.156 289.274 231.247 289.381 231.325C289.804 231.638 290.303 231.699 290.748 231.584C291.655 234.882 292.347 238.224 292.458 241.826C292.486 242.694 292.496 243.563 292.494 244.432C292.329 244.544 292.173 244.688 292.052 244.903C288.06 251.991 287.283 260.512 282.511 267.291C279.904 270.996 275.994 274.494 271.619 276.748C271.032 276.842 270.445 276.935 269.864 277.031C268.678 277.226 267.504 277.459 266.334 277.701C265.334 277.348 264.344 276.99 263.381 276.619C255.776 273.694 248.238 270.511 240.474 268.019C225.612 263.249 210.411 264.581 195.103 266.09C178.917 267.686 162.812 269.81 146.664 271.735C139.393 272.602 132.115 273.28 124.818 273.849C122.926 273.714 121.03 273.596 119.131 273.438C110.176 272.694 101.046 271.907 92.2633 269.994C90.5905 269.629 89.7527 271.015 89.9657 272.292C89.4584 272.919 89.2033 273.732 89.4004 274.696C90.3064 279.109 90.2919 286.061 95.9959 286.833C98.6704 287.195 101.83 286.49 104.544 285.915C111.315 288.526 121.034 287.734 125.661 282.953C125.766 282.845 125.855 282.735 125.934 282.622C132.438 283.475 139.564 283.624 144.946 280.777C145.314 280.581 145.538 280.302 145.651 279.988C161.08 278.306 176.36 275.504 191.773 273.759C196.536 273.221 201.247 272.727 205.924 272.437C204.428 273.904 205.982 277 208.479 276.31C221.853 272.61 236.122 275.205 247.593 282.927C252.891 286.494 257.509 291.015 263.194 294.01C267.832 296.453 273.182 298.175 278.49 298.573C278.406 298.92 278.332 299.269 278.283 299.626C278.2 300.222 278.46 300.728 278.863 301.04C278.522 301.204 278.212 301.426 277.976 301.692C274.678 305.405 275.882 312.039 274.294 316.619C272.314 322.326 268.762 327.457 264.73 331.901C259.13 338.069 251.178 344.183 242.669 346.828C238.92 345.857 235.261 344.351 231.517 343.325C224.043 341.278 216.653 342.219 209.082 343.111C193.146 344.991 177.182 346.727 161.212 348.297C145.506 349.84 128.96 351.459 113.24 349.499C111.831 349.324 110.795 349.961 110.213 350.879C109.822 350.411 109.449 349.962 109.106 349.574C106.979 347.169 103.208 349.697 104.977 352.506C106.728 355.284 107.962 358.93 110.393 361.184C112.617 363.244 115.469 362.885 118.348 362.966C122.084 363.07 125.826 363.118 129.563 363.068C133.385 363.015 138.103 363.259 141.547 361.47C142.812 360.814 143.595 359.601 143.703 358.376C149.725 358.312 155.783 357.941 161.935 357.314C178.981 355.574 195.935 352.992 212.955 351.025C217.277 350.525 221.676 349.936 226.012 350.605C229.769 351.186 233.229 352.75 236.786 354.01C243.648 356.441 250.192 357.42 257.314 355.404C258.275 355.132 259.215 354.812 260.142 354.456C260.101 354.498 260.059 354.535 260.018 354.579C257.59 356.385 255.12 358.128 252.726 360.045C252.649 360.106 252.588 360.174 252.521 360.239C251.844 360.109 251.149 360.16 250.511 360.49C249.445 361.042 248.738 361.866 248.703 363.068C248.642 363.356 248.619 363.648 248.67 363.944C248.819 364.801 249.355 365.529 250.254 365.693C250.298 365.7 250.344 365.7 250.389 365.705C250.406 365.715 250.421 365.726 250.438 365.736C250.451 365.778 250.459 365.799 250.469 365.829C250.482 365.928 250.495 366.028 250.508 366.126C250.64 366.983 250.854 367.725 251.553 368.303C251.579 368.321 251.608 368.334 251.634 368.353C251.212 369.723 250.998 371.116 251.146 372.495C251.27 373.652 252.639 374.389 253.626 373.65C256.847 371.236 258.592 366.789 260.81 363.511C261.632 362.296 262.631 361.1 263.594 359.87C269.091 355.921 273.486 350.204 277.202 344.404C277.705 344.346 278.195 344.089 278.519 343.553C283.2 335.831 288.168 328.523 291.025 319.86C292.255 316.127 293.5 312.214 293.753 308.28C294.04 303.785 292.874 299.3 293.361 294.837C293.837 290.485 295.454 286.293 296.42 282.04C297.458 277.464 298.136 272.795 298.713 268.142C299.08 265.187 299.481 261.944 299.7 258.635C300.809 252.579 301.534 246.319 301.382 240.152C302.617 236.686 302.369 232.659 302.347 229.059C302.32 224.458 302.459 219.829 301.46 215.319C301.292 214.559 300.835 214.111 300.271 213.915C300.292 213.487 300.296 213.063 300.26 212.659C301.23 211.068 302.146 209.437 302.934 207.701C304.81 203.571 306.183 199.274 307.525 194.95C308.617 191.435 310.121 187.657 310.257 183.898C310.963 181.924 311.649 179.94 312.295 177.927C312.788 176.395 310.733 175.322 309.966 176.843L309.97 176.844ZM261.64 196.581C261.193 196.656 260.816 196.885 260.534 197.192C257.717 196.531 254.838 196.042 252.184 195.356C250.725 194.978 249.271 194.575 247.82 194.168C252.969 195.083 258.133 195.881 263.342 196.332C262.787 196.404 262.225 196.484 261.64 196.581ZM282.261 301.93C281.885 301.597 281.469 301.291 280.999 301.022C280.95 300.994 280.898 300.98 280.847 300.956C281.21 300.697 281.553 300.415 281.878 300.114C282.013 300.72 282.139 301.326 282.261 301.93ZM282.365 325.162C281.163 325.934 280.044 326.865 278.976 327.888C280.624 325.157 282.018 322.281 283.033 319.264C283.193 318.791 283.355 318.288 283.514 317.763C283.345 320.251 282.977 322.719 282.365 325.162Z" fill="#FFAE91"/>
<path d="M200.607 232.085C199.685 227.731 198.785 224.158 200.813 219.878C201.204 219.052 200.169 218.131 199.417 218.715C196.004 221.364 194.675 225.171 194.105 229.344C193.278 235.39 196.886 240.107 197.673 245.877C198.048 248.633 202.12 248.328 201.994 245.531C201.791 241.013 201.547 236.521 200.608 232.085H200.607Z" fill="#FFAE91"/>
<path d="M54.4164 296.067C54.7599 293.753 53.8801 291.171 52.1435 289.413C50.4924 287.74 48.434 286.498 46.7627 284.829C44.7608 282.832 43.4345 280.181 41.2022 278.453C40.4846 277.897 39.367 277.864 38.5843 278.317C37.2782 276.876 35.9895 275.427 34.8125 273.887C33.9428 272.749 31.7438 273.714 32.457 275.124C35.3242 280.795 37.4507 286.8 40.4498 292.462C41.7371 294.891 43.3171 298.437 45.6871 300.149C45.7813 301.853 46.8352 303.406 48.6399 303.979C51.2129 304.797 53.5061 303.176 54.1627 300.689C54.5164 299.348 54.6411 297.668 54.4164 296.068V296.067Z" fill="#FFAE91"/>
<path d="M127.099 480.44C134.02 485.657 142.521 488.488 149.228 494.066C161.973 504.668 156.353 534.213 155.317 548.352C153.392 574.582 148.843 600.564 141.85 625.904H215.224C216.775 622.514 218.074 619.014 219.196 615.447C222.734 604.204 224.069 592.502 224.103 580.743C224.182 553.112 218.219 525.734 221.034 498.046C221.782 490.685 223.027 483.418 224.375 476.149C225.025 472.647 225.735 469.159 226.483 465.678C226.716 464.593 226.886 463.566 227.013 462.566C228.783 460.737 230.365 458.731 231.739 456.899C235.372 452.054 238.332 446.646 240.583 441.032C243.082 434.798 244.995 428.17 246.364 421.597C247.375 416.737 247.526 412.008 245.953 407.543C246.285 405.747 246.616 403.985 247.004 402.311C247.058 402.078 247.067 401.866 247.057 401.665C251.165 396.213 253.881 389.828 254.741 382.223C255.131 378.77 249.914 377.758 249.38 381.25C247.651 392.591 236.586 401.08 227.441 406.755C216.78 413.37 204.945 419.906 192.853 423.411C180.382 427.027 166.651 426.351 153.789 426.803C140.427 427.272 126.995 428.182 113.624 428.158C104.003 428.141 96.4585 422.692 88.67 417.722C85.7593 413.16 83.2254 408.354 80.6597 403.526C76.7473 396.164 75.5674 388.366 73.2974 380.462C72.2044 376.656 70.8592 372.974 68.6602 369.652C66.225 365.973 63.0751 363.752 59.715 361.005C57.5769 359.257 54.0921 362.187 56.0345 364.417C61.4545 370.641 63.2026 379.883 65.2885 387.631C67.5165 395.91 70.752 403.591 76.298 410.205C76.9662 411.003 77.6229 411.798 78.2752 412.593C78.2621 412.639 78.2592 412.688 78.2491 412.734C76.269 413.398 75.5138 416.592 77.8969 417.939C79.0145 418.57 80.0538 419.278 81.0584 420.018C82.8602 423.603 84.9359 427.084 87.4016 430.157C89.1034 432.278 91.4764 435.415 94.2102 437.241C95.9671 440.434 98.0646 443.581 100.559 446.284C100.336 447.058 100.362 447.951 100.743 448.926C105.823 461.941 116.131 472.169 127.104 480.444L127.099 480.44ZM239.628 409.411C239.586 409.699 239.535 409.986 239.491 410.274C239.214 410.228 238.932 410.205 238.646 410.199C238.974 409.937 239.309 409.679 239.628 409.411ZM231.188 415.358C230.384 416.304 229.611 417.277 228.862 418.271C228.186 418.431 227.522 418.748 226.918 418.983C225.668 419.467 225.655 419.557 225.926 419.519C225.086 419.698 224.18 419.765 223.336 420C226.007 418.47 228.627 416.908 231.19 415.358H231.188Z" fill="#FFAE91"/>
<path d="M302.611 150.833C302.057 148.584 301.453 145.705 300.148 143.765C298.048 140.644 294.33 140.33 290.904 140.74C285.75 141.357 279.15 141.745 274.285 143.724C273.195 144.168 272.393 144.682 271.786 145.271C275.349 148.849 277.568 153.808 277.81 159.19C278.06 164.745 275.461 169.864 271.454 173.47C272.953 175.402 275.219 176.779 277.78 178.155C280.54 179.636 283.904 181.852 287.057 183.067C288.182 183.277 289.297 183.391 290.351 183.346C292.616 183.249 294.521 181.903 296.263 180.291C301.905 172.885 303.887 156.006 302.612 150.832L302.611 150.833Z" fill="#FFEDE7"/>
<path d="M311.123 144.108C310.782 143.634 310.428 143.166 310.06 142.704C310.031 142.641 310.004 142.577 309.975 142.513C309.863 142.268 309.689 142.112 309.492 142.021C305.235 136.948 299.248 132.639 291.578 129.237C279.925 124.069 268.501 122.712 267.049 122.555C246.211 120.311 224.143 119.209 202.972 119.936C196.297 120.17 183.869 119.002 172.9 117.975C163.112 117.06 154.661 116.268 150.939 116.475C143.733 116.874 130.133 124.884 116.51 133.48L116.261 133.638C110.747 137.116 92.4837 147.569 79.1477 155.199C72.716 158.878 67.1612 162.057 64.7492 163.475C57.3216 167.839 50.3072 171.962 47.0297 182.249C45.454 187.196 45.9208 193.9 46.4136 200.995C46.9036 208.03 47.4095 215.306 45.7367 220.316C43.6348 226.615 37.8786 231.758 33.253 235.889C30.5569 238.299 28.2274 240.378 26.888 242.387C26.472 243.01 26.0937 243.553 25.7487 244.046C22.8887 248.14 22.0929 249.711 20.9549 261.849C19.9707 272.338 28.0042 284.889 33.872 294.053C36.113 297.553 38.0482 300.576 38.8643 302.546C40.153 305.662 39.5021 311.246 38.8121 317.157C38.0207 323.94 37.1248 331.63 38.7788 338.217C41.1474 347.645 47.7472 358.227 52.1148 365.23C53.4919 367.437 54.6805 369.345 55.398 370.674C57.9783 375.461 60.4628 383.593 63.4547 397.038C65.8074 407.615 74.8932 419.239 77.3401 422.227C76.7719 424.49 74.6352 431.525 68.0194 442.202C65.845 445.712 61.3601 451.059 55.6821 457.826C39.4485 477.176 14.9175 506.419 4.78506 538.715C-5.63875 571.939 3.4935 609.672 8.52929 626.001H14.5145C9.80635 611.409 -0.459458 572.677 10.1398 538.897C20.0533 507.301 44.3002 478.398 60.3468 459.271C66.119 452.391 70.6793 446.955 72.9928 443.22C77.2169 436.405 79.6898 431.017 81.1235 427.263C82.3599 429.159 83.6558 430.997 84.901 432.776C89.8759 439.884 95.7495 446.221 100.923 453.166C103.331 456.397 105.399 459.865 108.271 462.725C110.828 465.271 113.985 467.344 117.044 469.26C123.703 473.432 129.952 477.436 137.406 480.096C137.751 480.22 137.983 479.749 137.649 479.575C130.652 475.949 123.51 471.763 118.131 465.945C112.959 460.351 107.706 454.552 102.815 448.707C93.6013 437.697 86.2361 425.362 78.0199 413.645C74.6163 408.793 70.3184 401.733 68.892 395.322C65.8247 381.533 63.2315 373.11 60.4831 368.011C59.7105 366.579 58.4929 364.627 57.0839 362.366C56.8766 362.034 56.6606 361.688 56.4446 361.339C56.8708 361.725 57.2941 362.104 57.7072 362.465C60.9455 365.303 63.6678 367.349 65.674 371.286C67.586 375.04 68.6702 379.993 69.6472 384.154C69.6719 384.259 69.8444 384.24 69.8545 384.137C70.2575 380.097 71.1722 376.488 70.7446 372.375C70.3242 368.319 68.9775 366.312 65.8059 363.766C62.627 361.215 59.2684 358.988 56.291 356.175C50.7768 350.969 46.0498 343.793 44.1944 336.401C42.7042 330.466 43.5594 323.132 44.3132 316.664C45.0916 309.986 45.7642 304.218 44.1103 300.22C43.171 297.948 41.1532 294.797 38.8179 291.149C33.24 282.436 25.5994 270.501 26.4662 261.272C27.5621 249.6 28.2694 248.588 30.6134 245.231C30.9714 244.718 31.3657 244.155 31.7977 243.508C32.8776 241.89 35.0447 239.954 37.5539 237.714C42.5042 233.291 48.6663 227.787 51.0769 220.561C52.9802 214.858 52.4482 207.214 51.9336 199.821C51.4654 193.086 51.0218 186.723 52.3844 182.446C55.2328 173.5 61.363 169.899 68.4615 165.727C70.8547 164.32 76.4008 161.148 82.8223 157.472C96.1873 149.825 114.491 139.351 120.072 135.83L120.321 135.672C127.928 130.872 145.744 119.632 152.987 119.23C156.431 119.035 165.162 119.856 174.4 120.721C185.479 121.757 198.037 122.927 204.944 122.694C218.345 122.231 263.787 124.056 268.09 125.227L268.393 125.282C286.39 128.59 311.459 135.022 313.12 157.171C314.006 168.966 309.011 180.203 298.989 186.824C284.544 196.367 265.869 194.618 249.498 193.262C241.171 192.573 232.884 191.784 224.668 190.234C216.187 188.634 208.692 185.77 199.982 187.166C186.75 189.284 173.674 192.485 160.594 195.494C154.135 195.899 147.534 197.863 141.286 199.074C133.506 200.581 125.709 202.071 117.863 203.191C113.894 203.757 109.767 204.348 105.772 203.658C104.153 203.379 102.702 202.827 101.055 202.701C99.1328 202.554 97.2469 203.228 95.29 202.979C87.6885 202.012 80.3131 198.625 73.4045 195.484C72.4753 195.061 71.8216 196.467 72.7363 196.916C79.6333 200.312 86.5144 204.055 93.8405 206.456C95.6684 207.056 97.102 207.78 98.5559 208.339C91.7777 209.583 84.9764 210.679 78.2272 212.146C77.4807 212.308 77.5126 213.404 78.3258 213.364C86.655 212.952 94.8407 211.581 103.137 210.832C111.447 210.081 119.631 209.183 127.873 207.843C144.542 205.134 161.063 201.689 177.664 198.619C185.799 197.116 194.192 195.959 202.482 196.259C210.852 196.561 218.732 199.34 226.486 202.302C242.325 208.352 257.535 216.648 272.625 224.335C280.217 228.203 287.38 232.864 290.084 241.372C291.254 245.051 291.799 248.992 291.951 252.997C291.636 255.559 291.374 258.125 290.851 260.663C289.874 265.409 288.311 270.201 286.677 274.755C285.212 278.845 283.319 282.686 281.42 286.583C280.949 287.551 275.99 295.951 274.614 295.252C267.384 291.572 259.504 289.206 252.117 285.597C245.972 282.594 240.577 278.422 234.218 275.83C221.569 270.673 207.117 273.685 193.886 274.759C178.881 275.979 163.933 277.57 148.924 278.238C146.187 278.359 143.459 278.603 140.738 278.927C133.792 279.162 127.022 279.214 119.988 278.562C116.041 278.197 112.117 278.115 108.267 277.1C103.832 275.93 99.5126 274.253 95.2147 272.663C93.997 272.212 93.3128 273.783 94.3783 274.454C98.108 276.798 101.984 278.472 106.184 279.802C109.829 280.956 113.521 282.29 117.296 283.05C112.659 283.974 108.026 284.866 103.386 285.558C102.773 285.649 102.836 286.586 103.464 286.525C117.838 285.127 132.308 285.383 146.667 283.917C153.858 283.183 160.913 281.761 168.16 281.151C175.649 280.52 183.148 279.98 190.645 279.451C204.246 278.493 219.454 275.533 232.749 279.619C245.639 283.581 257.148 289.894 269.109 295.782C271.008 296.753 272.634 297.994 274.017 299.443C274.053 299.967 274.466 300.41 274.968 300.513C282.379 309.532 281.642 325.134 278.038 335.299C275.688 341.927 268.732 347.844 263.09 351.637C258.138 354.966 252.068 355.929 247.223 359.134C246.655 358.631 246.061 358.161 245.44 357.728C245.939 357.699 246.433 357.664 246.914 357.612C248.407 357.451 248.674 355.007 247.052 354.871C243.409 354.568 240.677 353.33 237.369 351.947C234.602 350.791 232.04 350.775 229.096 350.473C228.335 350.395 227.58 350.328 226.832 350.279C227.328 349.853 227.799 349.403 228.215 348.896C228.554 348.482 228.238 347.659 227.634 347.779C223.342 348.634 219.642 350.248 215.143 350.361C210.875 350.468 206.59 350.328 202.323 350.287C191.727 350.189 181.401 352.057 170.917 353.289C160.728 354.487 150.497 354.798 140.25 354.394C129.308 353.963 118.377 353.63 107.59 351.43C106.494 351.207 106.205 352.874 107.281 353.127C118.034 355.653 128.952 358.324 140.025 358.876C150.739 359.409 161.521 358.885 172.158 357.54C182.861 356.187 193.368 354.572 204.189 354.753C207.346 354.807 211.322 354.891 215.233 354.458C215.34 354.487 215.457 354.498 215.586 354.475C215.942 354.412 216.298 354.341 216.655 354.271C217.59 354.134 218.509 353.958 219.41 353.745C220.567 353.537 221.73 353.363 222.897 353.302C226.897 353.095 229.366 354.556 232.929 355.952C234.553 356.588 236.349 357.049 238.2 357.35C242.421 359.868 245.805 363.606 248.429 367.862C257.243 382.162 252.298 396.075 242.026 407.614C238.733 411.314 235.258 414.886 230.794 417.112C227.411 418.799 224.33 418.592 220.783 419.341C218.132 419.901 215.702 421.184 213.058 421.827C201.914 424.538 190.403 426.554 179.101 428.501C169.576 430.144 157.276 431.564 148.528 426.965C147.299 426.319 146.222 428.111 147.25 428.982C150.884 432.067 156.279 434.568 161.052 435.054C163.375 435.292 165.69 435.14 167.99 434.801C162.975 437.306 158.045 439.711 152.025 440.321C143.231 441.212 135.484 437.733 127.05 436.175C126.161 436.011 125.845 437.061 126.373 437.625C128.627 440.026 132.264 442.654 135.569 443.058C140.792 443.698 146.27 443.594 151.455 442.831C158.333 441.82 166.564 439.661 172.716 435.519C169.634 439.852 164.829 442.77 160.162 445.31C156.421 447.346 152.667 448.923 148.735 450.497C145.007 451.99 142.207 454.127 139.038 456.572C137.93 457.426 138.832 459.186 140.182 458.747C144.722 457.273 148.188 455.826 152.135 453.111C155.772 450.608 159.674 448.674 163.495 446.487C169.213 443.214 174.159 439.293 176.595 433.001C177.073 432.891 177.553 432.779 178.028 432.675C191.182 429.822 204.639 426.337 217.978 424.65C223.665 423.93 228.14 420.989 233.238 418.307C237.826 415.891 242.011 413.519 245.547 409.67C246.298 408.852 247.019 407.982 247.71 407.075C246.303 416.469 243.264 434.384 239.633 441.637C234.031 452.83 223.808 463.481 212.738 469.493C204.373 474.036 196.006 476.257 186.53 477.407C185.795 477.497 185.881 478.592 186.623 478.554C191.174 478.318 195.691 477.778 200.124 476.696C201.734 476.304 203.393 475.942 205.057 475.562C202.346 477.368 199.87 479.737 197.003 481.103C191.16 483.885 184.292 485.389 178.172 487.522C177.393 487.793 177.833 488.901 178.602 488.704C185.807 486.865 192.865 484.937 199.892 482.541C203.351 481.361 205.353 481.123 208.273 478.683C210.261 477.024 211.942 475.121 213.558 473.138C213.863 473.021 214.172 472.911 214.472 472.785C218.333 471.167 222.107 468.365 225.399 465.113C223.79 475.423 219.764 503.94 220.812 525.223C221.172 532.527 221.837 540.154 222.479 547.529C224.14 566.588 225.857 586.297 222.169 600.419C219.178 611.871 215.879 620.661 213.656 625.991H216.181C218.374 620.491 221.232 612.447 223.891 602.268C227.74 587.531 225.994 567.502 224.307 548.13C223.668 540.788 223.005 533.197 222.649 525.963C221.459 501.773 226.952 467.922 227.732 463.274C229.46 461.393 236.411 453.547 241.089 444.201C245.952 434.485 249.59 408.363 250.26 403.312C250.493 402.923 250.724 402.532 250.946 402.134C256.644 394.3 256.587 387.232 256.034 383.681C256.034 383.074 256.013 382.47 255.974 381.871C255.951 381.503 255.735 381.265 255.464 381.157C255.274 380.068 254.822 376.175 257.092 371.964C257.902 370.461 261.301 366.606 265.238 362.142C275.101 350.955 291.61 332.234 299.609 314.717C311.213 289.303 307.473 250.929 304.084 242.536C303.685 236.306 302.943 217.769 302.824 214.742C309.875 198.303 315.083 180.234 317.095 162.667L317.108 162.549V162.431C317.018 155.622 314.983 149.471 311.13 144.099L311.123 144.108ZM200.673 190.919C206.173 190.26 211.645 190.191 217.222 191.32C219.855 191.853 222.492 192.383 225.129 192.908C225.106 193.044 225.094 193.189 225.1 193.342C225.156 194.883 225.309 196.4 225.63 197.905C217.622 194.495 209.513 191.772 200.673 190.921V190.919ZM307.876 194.321C307.395 195.841 306.887 197.424 306.339 199.033C302.857 209.234 297.667 220.429 286.296 222.539C285.961 222.601 285.99 223.123 286.34 223.076C292.455 222.259 296.621 222.036 300.182 216.429C300.477 215.963 300.753 215.488 301.019 215.009C301.221 220.032 301.899 236.699 302.265 242.174L302.286 242.5L302.42 242.8C305.896 250.612 308.93 288.546 298.094 312.277C290.323 329.297 274.04 347.763 264.311 358.795C259.724 363.997 256.696 367.432 255.686 369.305C254.88 370.801 254.354 372.268 254.013 373.638C253.571 370.678 253.085 367.762 251.704 364.987C250.985 363.543 250.116 362.252 249.134 361.093C252.501 359.936 256.234 359.399 259.459 357.975C263.167 356.339 266.684 354.206 269.774 351.581C272.596 349.181 274.981 346.136 276.938 343C279.208 339.364 281.8 334.807 283.13 330.725C285.671 322.93 285.958 305.139 278.837 297.477C281.073 294.952 282.949 291.921 284.709 289.249C287.524 284.972 289.605 280.047 291.242 275.213C293.112 269.694 294.602 263.248 294.817 256.985C295.236 253.476 295.35 249.932 294.856 246.281C293.995 239.916 291.519 232.382 287.12 227.541C282.087 222.003 273.746 219.625 267.092 216.728C258.427 212.954 249.809 209.095 241.251 205.085C237.339 203.252 233.497 201.407 229.657 199.672C229.596 199.082 229.441 198.473 229.341 197.804C229.135 196.421 228.972 195.038 228.88 193.645C232.29 194.305 235.702 194.944 239.124 195.53C252.95 197.901 268.194 199.066 282.133 197.056C293.045 195.484 304.03 190.507 310.52 181.268C311.155 180.364 311.717 179.452 312.226 178.532C309.853 182.819 309.386 189.562 307.879 194.32L307.876 194.321Z" fill="#332929"/>
<path d="M135.627 430.767C136.245 431.201 136.835 431.305 137.486 431.602C138.376 432.009 139.053 432.538 139.824 433.17C141.298 434.378 142.717 435.306 144.422 436.135C145.039 436.435 145.787 435.628 145.312 435.068C144.217 433.773 143.103 432.623 141.863 431.462C141.144 430.787 140.343 430.195 139.893 429.29C139.445 428.387 139.538 427.976 138.876 427.123C137.172 424.932 134.021 421.875 131.234 421.279C130.599 421.142 130.1 421.7 130.113 422.292C130.174 425.307 133.263 429.106 135.627 430.768V430.767Z" fill="#332929"/>
<path d="M169.279 449.747C170.572 449.469 171.859 449.179 173.137 448.84C173.825 448.659 174.509 448.467 175.19 448.264C176.737 447.804 176.812 448.069 178.692 448.089C181.413 448.118 183.495 445.857 185.057 443.837C185.804 442.873 185.099 441.384 183.835 441.485C181.467 441.677 178.886 441.915 177.019 443.494C175.552 444.734 174.717 445.854 172.895 446.62C171.589 447.171 170.264 447.667 168.929 448.145C168.081 448.448 168.344 449.947 169.279 449.745V449.747Z" fill="#332929"/>
<path d="M208.208 465.559C216.901 457.519 225.58 448.23 228.082 436.226C228.186 435.727 227.439 435.323 227.135 435.786C225.464 438.324 224.414 441.142 222.685 443.671C221.203 445.839 219.725 447.95 218.355 450.195C215.149 455.446 211.81 460.375 207.528 464.828C207.14 465.233 207.786 465.949 208.208 465.559Z" fill="#332929"/>
<path d="M41.7299 496.879C35.9997 505.336 30.4943 514.036 24.9396 522.6C22.5101 526.346 21.7273 530.72 20.069 534.825C18.1629 539.543 17.2235 544.294 16.3509 549.295C16.2146 550.074 17.3786 550.276 17.554 549.513C18.6804 544.607 20.8272 539.831 22.9174 535.249C24.8004 531.122 27.901 528.143 29.6608 523.893C33.4253 514.806 38.4828 506.365 42.6938 497.49C42.9649 496.918 42.1053 496.325 41.7299 496.88V496.879Z" fill="#332929"/>
<path d="M333.937 140.111C332.734 140.111 331.546 140.233 330.373 140.46C329.199 140.233 328.01 140.111 326.808 140.111C321.651 140.111 316.737 142.259 312.259 146.133C314.836 149.568 315.858 153.606 316.327 157.806C320.477 152.142 325.25 148.419 330.374 147.23C346.952 151.076 359.861 181.425 359.861 218.299C359.861 255.174 346.952 285.522 330.374 289.369C313.797 285.522 300.887 255.174 300.887 218.299C300.887 207.507 302.022 197.309 304.005 188.141C302.304 189.605 300.422 190.861 298.404 191.819C296.963 200.091 296.168 209 296.168 218.299C296.168 245.172 302.718 268.875 312.693 282.949C301.5 271.497 293.757 246.856 293.757 218.299C293.757 209.304 294.534 200.706 295.938 192.779C295.795 192.802 295.659 192.808 295.522 192.807C294.006 193.609 292.429 194.327 290.762 194.936C289.646 202.315 289.039 210.158 289.039 218.298C289.039 261.479 305.949 296.485 326.811 296.485C328.014 296.485 329.203 296.363 330.376 296.136C331.55 296.363 332.739 296.485 333.94 296.485C354.801 296.485 371.713 261.479 371.713 218.298C371.713 175.117 354.802 140.111 333.94 140.111H333.937ZM348.055 282.948C358.029 268.873 364.58 245.171 364.58 218.299C364.58 191.428 358.029 167.724 348.055 153.651C359.247 165.103 366.99 189.744 366.99 218.299C366.99 246.855 359.247 271.496 348.055 282.948Z" fill="#868686"/>
<path d="M312.69 282.948C311.984 281.951 311.298 280.903 310.627 279.812L310.105 279.98C310.944 281.046 311.804 282.043 312.688 282.948H312.69Z" fill="#3D2929"/>
<path d="M362.279 282.901L331.669 273.021L315.854 278.125C318.805 282.304 322.081 285.493 325.586 287.467C327.223 285.88 329.451 284.899 331.912 284.899C336.931 284.899 341 288.964 341 293.978C341 298.991 336.931 303.056 331.912 303.056C327.63 303.056 324.05 300.093 323.087 296.109C316.269 294.729 309.982 289.597 304.716 281.722L301.058 282.902C294.9 282.902 289.908 287.89 289.908 294.041V368.091C289.908 374.242 294.9 379.23 301.058 379.23H362.279C368.437 379.23 373.429 374.242 373.429 368.091V294.041C373.429 287.89 368.437 282.902 362.279 282.902V282.901Z" fill="#3D2929"/>
<path d="M332.447 387.206H314.739V437.163C314.739 438.188 318.975 438.188 318.975 438.188C318.975 438.188 319.36 434.086 320.9 433.744C322.441 433.402 324.751 437.847 324.751 439.555C324.751 441.264 321.285 448.102 321.355 452.546C321.425 456.991 326.678 454.598 327.161 458.358C327.643 462.118 324.367 465.538 321.874 472.717C319.381 479.897 326.678 487.077 327.161 494.255C327.643 501.435 323.212 501.435 322.057 506.221C320.901 511.007 325.523 507.93 327.063 511.349C328.604 514.768 328.604 519.895 328.9 525.366C329.196 530.836 325.523 530.152 325.523 530.152C325.523 530.152 325.137 542.46 325.523 544.854C325.852 546.903 330.684 549.198 332.069 549.816V549.983C332.069 549.983 332.146 549.95 332.259 549.9C332.37 549.95 332.449 549.983 332.449 549.983V549.816C333.833 549.198 338.666 546.903 338.995 544.854C339.38 542.46 338.995 530.152 338.995 530.152C338.995 530.152 335.322 530.836 335.617 525.366C335.913 519.897 335.913 514.768 337.454 511.349C338.995 507.93 343.616 511.007 342.461 506.221C341.305 501.435 336.874 501.435 337.357 494.255C337.84 487.075 345.138 479.896 342.643 472.717C340.15 465.538 336.873 462.118 337.357 458.358C337.84 454.597 343.093 456.991 343.162 452.546C343.232 448.102 339.766 441.264 339.766 439.555C339.766 437.847 342.077 433.401 343.617 433.744C345.158 434.086 345.542 438.188 345.542 438.188C345.542 438.188 349.778 438.188 349.778 437.163V387.206H332.449H332.447Z" fill="#939393"/>
<path d="M344.308 387.206V434.219C345.273 435.38 345.54 438.188 345.54 438.188C345.54 438.188 349.775 438.188 349.775 437.163V387.206H344.308Z" fill="#777777"/>
<path d="M319.443 387.206H314.739V437.163C314.739 438.188 318.975 438.188 318.975 438.188C318.975 438.188 319.091 436.973 319.443 435.812V387.206Z" fill="#777777"/>
<path d="M333.392 387.206V534.398C333.392 538.457 333.452 542.544 333.205 546.567C332.17 545.071 332.156 543.255 332.153 541.509C332.147 539.063 332.149 536.617 332.15 534.171C332.15 529.279 332.153 524.387 332.154 519.496C332.157 509.644 332.269 499.793 332.301 489.941C332.366 470.302 331.886 450.677 331.746 431.041C331.667 420.038 331.991 409.013 331.337 398.025C331.334 397.976 331.263 397.976 331.26 398.025C330.679 407.792 330.866 417.596 330.856 427.378C330.844 437.228 330.695 447.087 330.492 456.934C330.086 476.568 330.415 496.204 330.442 515.839C330.45 521.274 330.445 526.71 330.447 532.145C330.447 534.863 330.453 537.58 330.447 540.298C330.444 541.836 331.273 544.783 330.457 546.158C329.404 547.931 328.935 543.265 328.797 542.531C328.99 543.553 328.63 544.775 328.781 545.85C328.928 546.896 329.132 548.381 330 549.111C330.431 549.473 332.149 550.359 332.64 550.283C333.156 550.203 335.326 549.023 335.248 548.397C335.153 546.968 335.233 545.374 335.233 543.901V513.85C335.233 507.084 335.336 500.299 335.161 493.541C335.01 487.689 337.85 482.189 337.782 476.358C337.745 473.291 336.703 470.05 336.165 467.038C335.649 464.149 335.232 461.145 335.232 458.262C335.232 456.429 335.264 453.909 336.431 452.389C336.849 451.843 337.439 451.405 337.687 450.764C337.844 450.355 337.844 449.905 337.825 449.469C337.719 447.131 336.939 444.913 336.319 442.676C335.8 440.807 335.972 439.079 335.765 437.166C335.251 432.4 335.233 427.506 335.233 422.776V392.154C335.233 389.468 338.809 388.026 341.311 387.208H333.394L333.392 387.206Z" fill="#777777"/>
<path d="M334.089 398.892C334.089 398.892 337.46 395.526 341.984 392.16V406.491C341.984 406.491 334.787 412.261 334.089 414.953V398.892Z" fill="#777777"/>
<path d="M354.788 378.41H310.105V387.206H354.788V378.41Z" fill="#3D2929"/>
<path d="M362.279 282.901L331.669 273.021L320.4 276.658C320.754 276.8 321.107 276.946 321.46 277.1L323.005 276.602C334.135 279.41 345.635 282.939 355.733 288.453C357.058 289.177 358.838 289.949 359.909 291.035C363.556 294.735 363.614 300.178 363.316 304.925C363.14 307.723 363.004 310.524 362.714 313.311C362.41 316.232 362.001 319.139 361.691 322.059C361.685 322.117 361.779 322.128 361.791 322.073C362.471 319.142 362.955 316.173 363.44 313.203C363.884 310.498 364.377 307.806 364.764 305.093V371.672C364.764 374.593 363.629 377.244 361.788 379.23H362.279C368.437 379.23 373.429 374.242 373.429 368.091V294.041C373.429 287.89 368.437 282.902 362.279 282.902V282.901Z" fill="#2E1818"/>
<path d="M349.775 320.028H313.728V322.625H349.775V320.028Z" fill="#2E1818"/>
<path d="M349.775 325.221H313.728V327.817H349.775V325.221Z" fill="#2E1818"/>
<path d="M349.775 330.415H313.728V333.012H349.775V330.415Z" fill="#2E1818"/>
<path d="M349.775 335.608H313.728V338.205H349.775V335.608Z" fill="#2E1818"/>
<path d="M349.775 340.801H313.728V343.397H349.775V340.801Z" fill="#2E1818"/>
<path d="M349.775 345.996H313.728V348.593H349.775V345.996Z" fill="#2E1818"/>
<path d="M34.0153 271.532C33.2224 271.027 32.2715 272.061 33.0499 272.694C37.358 276.192 39.8078 280.844 43.523 284.865C45.1523 286.627 47.0382 288.058 48.6124 289.891C50.2287 291.774 51.3217 293.935 52.8017 295.904C53.3583 296.644 54.4904 296.199 54.4643 295.3C54.331 290.749 51.9305 284.842 49.2517 281.175C45.5567 276.118 39.0772 274.761 34.0139 271.534L34.0153 271.532Z" fill="#332929"/>
<path d="M54.9967 189.296C55.2822 192.449 53.2514 196.229 54.3154 199.278C55.1286 201.611 55.7678 201.002 56.3056 204.484C56.6129 206.473 56.5897 208.561 56.6361 210.566C56.6564 211.413 58.0393 211.495 58.1321 210.642C58.306 209.04 58.4336 207.444 58.5437 205.837C58.7119 203.372 59.5034 201.136 59.8687 198.809C60.3803 195.555 56.9289 191.932 55.8664 189.108C55.6896 188.639 54.9488 188.785 54.9952 189.298L54.9967 189.296Z" fill="#332929"/>
<path d="M146.105 127.653C143.994 140.301 135.508 153.713 143.279 166.307C143.61 166.842 144.619 166.516 144.485 165.869C143.737 162.243 143.081 158.926 143.593 155.205C144.036 151.975 145.035 148.858 145.552 145.638C146.073 142.411 146.142 139.209 146.754 135.975C147.276 133.216 147.472 130.526 147.495 127.721C147.502 126.919 146.234 126.881 146.105 127.651V127.653Z" fill="#332929"/>
<path d="M200.445 242.164C200.938 237.157 202.205 232.295 203.047 227.339C203.99 221.802 204.368 216.39 206.19 211.007C206.365 210.492 205.668 210.139 205.407 210.642C202.937 215.44 200.267 220.458 199.084 225.761C197.877 231.17 198.794 236.772 199.767 242.129C199.831 242.479 200.403 242.578 200.444 242.162L200.445 242.164Z" fill="#332929"/>
<path d="M214.985 249.777C215.472 248.364 215.291 247.023 215.275 245.547C215.254 243.579 215.327 241.611 215.489 239.649C215.57 238.654 214.103 238.344 213.932 239.367C213.442 242.298 212.352 246.891 213.624 249.718C213.857 250.236 214.759 250.435 214.985 249.777Z" fill="#332929"/>
<path d="M217.006 312.261C218.184 309.817 218.133 306.919 217.786 304.262C217.294 300.503 217.196 296.927 217.312 293.135C217.336 292.305 215.936 292.234 215.85 293.062C215.489 296.61 215.182 300.142 214.508 303.638C213.962 306.472 213.67 309.511 214.981 312.175C215.385 312.997 216.562 313.181 217.006 312.263V312.261Z" fill="#332929"/>
<path d="M292.839 137.358C289.262 137.549 285.49 138.447 282.007 139.26C278.744 140.021 274.776 140.696 271.843 142.428C271.605 142.569 271.397 142.722 271.196 142.879C271.619 142.04 272.106 141.249 272.683 140.528C273.004 140.127 272.457 139.467 272.043 139.839C266.649 144.679 266.998 154.238 266.836 161.042C266.225 167.633 266.231 174.795 269.886 180.033C270.031 180.241 270.325 180.021 270.202 179.808C269.468 178.535 269.139 177.019 269.003 175.429C271.108 178.195 275.255 179.884 278.157 181.277C279.19 181.772 280.264 182.257 281.365 182.703C284.187 184.739 287.434 186.232 291.027 186.116C294.13 186.018 296.314 183.673 298.135 181.117C305.407 173.305 307.855 154.856 303.249 144.576C301.216 140.039 297.81 137.093 292.838 137.358H292.839ZM296.26 180.291C294.518 181.902 292.613 183.251 290.348 183.346C289.294 183.391 288.179 183.275 287.054 183.067C283.901 181.852 280.536 179.636 277.777 178.155C273.25 175.725 269.642 173.288 269.567 167.793C269.509 163.517 269.435 159.194 269.515 154.921C269.554 152.84 269.787 150.777 270.026 148.714C270.538 146.497 271.45 144.877 274.284 143.724C279.148 141.746 285.748 141.357 290.903 140.74C294.328 140.33 298.048 140.643 300.148 143.765C301.454 145.705 302.059 148.584 302.611 150.833C303.885 156.006 301.904 172.886 296.262 180.292L296.26 180.291Z" fill="#332929"/>
</svg>
