<svg width="16" height="16" viewBox="0 0 16 16" fill="none" xmlns="http://www.w3.org/2000/svg">
<g clip-path="url(#clip0_33_79535)">
<path d="M13.8252 0.469754C13.7556 0.40009 13.673 0.344824 13.5821 0.307116C13.4911 0.269409 13.3936 0.25 13.2952 0.25C13.1967 0.25 13.0993 0.269409 13.0083 0.307116C12.9174 0.344824 12.8348 0.40009 12.7652 0.469754L7.03019 6.19975C6.90019 6.32975 6.82519 6.50475 6.81519 6.68975L6.71519 8.49475C6.70519 8.70475 6.78519 8.91475 6.93519 9.06475C7.07519 9.20475 7.26519 9.28475 7.46519 9.28475H7.50519L9.31019 9.18475C9.49019 9.17475 9.66519 9.09475 9.79519 8.96475L15.5302 3.23975C15.6702 3.09475 15.7502 2.90475 15.7502 2.70975C15.7502 2.50975 15.6702 2.31975 15.5302 2.17475L13.8252 0.469754Z" fill="#D9295E"/>
<path d="M2.782 15.7497H11.1C11.7714 15.749 12.4151 15.4821 12.8898 15.0074C13.3646 14.5327 13.6317 13.8891 13.6325 13.2177V8.08969C13.6325 7.89078 13.5535 7.70001 13.4128 7.55936C13.2722 7.41871 13.0814 7.33969 12.8825 7.33969C12.6836 7.33969 12.4928 7.41871 12.3522 7.55936C12.2115 7.70001 12.1325 7.89078 12.1325 8.08969V13.2172C12.1321 13.4909 12.0232 13.7532 11.8296 13.9467C11.6361 14.1401 11.3737 14.2489 11.1 14.2492H2.782C2.5085 14.2488 2.24632 14.14 2.05288 13.9467C1.85944 13.7533 1.75053 13.4912 1.75 13.2177V4.89969C1.75 4.33069 2.213 3.86719 2.782 3.86719H7.91C8.10891 3.86719 8.29968 3.78817 8.44033 3.64752C8.58098 3.50687 8.66 3.3161 8.66 3.11719C8.66 2.91828 8.58098 2.72751 8.44033 2.58686C8.29968 2.44621 8.10891 2.36719 7.91 2.36719H2.782C2.11054 2.36798 1.46683 2.63514 0.99213 3.11002C0.517431 3.58491 0.250529 4.22873 0.25 4.90019V13.2177C0.250794 13.889 0.517812 14.5325 0.992483 15.0072C1.46715 15.4819 2.11072 15.7489 2.782 15.7497Z" fill="#D9295E"/>
</g>
<defs>
<clipPath id="clip0_33_79535">
<rect width="16" height="16" fill="white"/>
</clipPath>
</defs>
</svg>
