<svg width="203" height="442" viewBox="0 0 203 442" fill="none" xmlns="http://www.w3.org/2000/svg">
<path d="M99.2021 54.3084C86.147 94.5836 78.3799 135.638 75.4279 176.477L7 231.37L76.216 261.154C82.5214 330.616 102.598 383.327 134.398 442H210V14H114.22C108.717 27.0273 103.687 40.4524 99.2021 54.3084Z" fill="#FE6F00" fill-opacity="0.5"/>
<path d="M112.202 40.3084C99.147 80.5836 91.3799 121.638 88.4279 162.477L20 217.37L89.216 247.154C95.5214 316.616 115.598 383.327 147.398 442H223V0H127.22C121.717 13.0273 116.687 26.4524 112.202 40.3084Z" fill="white"/>
<path d="M20.5097 217.378L88.9951 162.483C91.9353 121.642 99.7089 80.5866 112.789 40.3099C117.278 26.4699 122.327 13.0278 127.82 0H117.235C112.302 12.0001 107.784 24.2158 103.825 36.4148C91.2755 75.1004 83.2151 115.41 79.8589 156.333L0 220.345L80.9203 255.136C87.7616 320.921 107.024 385.231 136.813 442H148C116.16 383.325 96.0659 316.612 89.7696 247.147L20.4954 217.362L20.5097 217.378Z" fill="#212121"/>
</svg>
